<?xml version="1.0" encoding="UTF-8" standalone="no"?>
<svg width="227px" height="45px" viewBox="0 0 227 45" version="1.1" xmlns="http://www.w3.org/2000/svg" xmlns:xlink="http://www.w3.org/1999/xlink">
    <!-- Generator: Sketch 3.8.3 (29802) - http://www.bohemiancoding.com/sketch -->
    <title>logo-inversed</title>
    <desc>Created with Sketch.</desc>
    <defs></defs>
    <g id="Website" stroke="none" stroke-width="1" fill="none" fill-rule="evenodd">
        <g id="Outcomes@2x" transform="translate(-150.000000, -20.000000)" fill="#FFFFFF">
            <g id="Header" transform="translate(150.000000, 20.000000)">
                <g id="logo-inversed">
                    <g id="Type" transform="translate(59.000000, 8.000000)">
                        <polyline id="Fill-1" points="15.3991839 28.6184211 15.3991839 15.5828251 2.38440487 15.5828251 2.38440487 28.6184211 0 28.6184211 0 1.14473684 2.38440487 1.14473684 2.38440487 13.3965929 15.3991839 13.3965929 15.3991839 1.14473684 17.7837838 1.14473684 17.7837838 28.6184211 15.3991839 28.6184211"></polyline>
                        <path d="M29.9286756,26.8890736 C31.9837503,26.8890736 34.2857195,26.4750764 36.2586943,25.9370598 L36.6695902,27.882627 C34.8201618,28.5448627 32.1895949,29 29.7640793,29 C24.1327028,29 22.3243243,26.0612789 22.3243243,21.6732681 L22.3243243,15.3398898 C22.3243243,11.2003172 24.173951,8.01315789 29.8051292,8.01315789 C35.4369024,8.01315789 37.0810811,11.2003172 37.0810811,15.3398898 L37.0810811,19.2310241 L24.7083934,19.2310241 L24.7083934,21.7561474 C24.7083934,25.3573039 25.9416761,26.8890736 29.9286756,26.8890736 L29.9286756,26.8890736 Z M24.5945946,16.7894737 L34.8108108,16.7894737 L34.8108108,15.0014372 C34.8108108,11.6686971 33.5967589,9.92105263 29.7863329,9.92105263 C25.9763109,9.92105263 24.5945946,11.6686971 24.5945946,15.0014372 L24.5945946,16.7894737 L24.5945946,16.7894737 Z" id="Fill-2"></path>
                        <polyline id="Fill-3" points="41.6216216 28.6184211 41.6216216 0.330051863 44.2702703 -1.7408297e-13 44.2702703 28.6184211 41.6216216 28.6184211"></polyline>
                        <polyline id="Fill-4" points="50.3243243 28.6184211 50.3243243 0.330051863 52.972973 -1.7408297e-13 52.972973 28.6184211 50.3243243 28.6184211"></polyline>
                        <path d="M65.2700723,29 C59.6475869,29 57.5135135,25.812641 57.5135135,21.6732681 L57.5135135,15.3398898 C57.5135135,11.2003172 59.6475869,8.01315789 65.2700723,8.01315789 C70.8927557,8.01315789 73.027027,11.2003172 73.027027,15.3398898 L73.027027,21.6732681 C73.027027,25.812641 70.8927557,29 65.2700723,29 L65.2700723,29 Z M70.3783784,15.4269867 C70.3783784,12.010683 68.7610766,10.3026316 65.080886,10.3026316 C61.4012806,10.3026316 59.7837838,12.010683 59.7837838,15.4269867 L59.7837838,21.9677501 C59.7837838,25.3838529 61.4012806,27.0921053 65.080886,27.0921053 C68.7610766,27.0921053 70.3783784,25.3838529 70.3783784,21.9677501 L70.3783784,15.4269867 L70.3783784,15.4269867 Z" id="Fill-5"></path>
                        <polyline id="Fill-6" points="100.912892 28.6184211 100.912892 15.5828251 87.8981134 15.5828251 87.8981134 28.6184211 85.5135135 28.6184211 85.5135135 1.14473684 87.8981134 1.14473684 87.8981134 13.3965929 100.912892 13.3965929 100.912892 1.14473684 103.297297 1.14473684 103.297297 28.6184211 100.912892 28.6184211"></polyline>
                        <path d="M115.442291,26.8890736 C117.49779,26.8890736 119.79979,26.4750764 121.772792,25.9370598 L122.183693,27.882627 C120.333843,28.5448627 117.703043,29 115.278089,29 C109.646637,29 107.837838,26.0612789 107.837838,21.6732681 L107.837838,15.3398898 C107.837838,11.2003172 109.687688,8.01315789 115.31914,8.01315789 C120.950394,8.01315789 122.594595,11.2003172 122.594595,15.3398898 L122.594595,19.2310241 L110.221939,19.2310241 L110.221939,21.7561474 C110.221939,25.3573039 111.45504,26.8890736 115.442291,26.8890736 L115.442291,26.8890736 Z M110.108108,16.7894737 L120.324324,16.7894737 L120.324324,15.0014372 C120.324324,11.6686971 119.109916,9.92105263 115.300045,9.92105263 C111.489972,9.92105263 110.108108,11.6686971 110.108108,15.0014372 L110.108108,16.7894737 L110.108108,16.7894737 Z" id="Fill-7"></path>
                        <path d="M140.756757,28.5862025 L138.673059,28.5862025 L138.50617,27.013093 C136.547338,28.2137448 134.296952,29 131.629747,29 C128.045457,29 126.378378,26.9717532 126.378378,23.370397 C126.378378,19.106805 128.337211,17.7821338 132.33812,17.7821338 L138.339684,17.7821338 L138.339684,13.8496597 C138.339684,11.0760981 136.880713,10.1656238 133.546556,10.1656238 C131.546101,10.1656238 129.420782,10.4552022 127.544992,10.8278595 L127.169994,8.79941307 C128.795452,8.34427577 131.337993,8.01315789 133.421691,8.01315789 C138.673059,8.01315789 140.756757,10.0827445 140.756757,13.8496597 L140.756757,28.5862025 L140.756757,28.5862025 Z M138.108108,19.8421053 L132.242354,19.8421053 C129.475083,19.8421053 128.648649,20.6645697 128.648649,23.2968526 C128.648649,25.641025 129.14447,26.7105263 131.953192,26.7105263 C133.935878,26.7105263 136.29043,25.9291355 138.108108,24.6540677 L138.108108,19.8421053 L138.108108,19.8421053 Z" id="Fill-8"></path>
                        <path d="M153.324324,10.3630595 C151.321622,11.2751597 149.122854,12.8091282 147.277572,14.0942694 L147.277572,28.6052632 L145,28.6052632 L145,8.41444552 L147.041915,8.41444552 L147.159554,11.4825825 C149.201659,10.0728277 151.243196,8.7046774 153.049455,8 L153.324324,10.3630595" id="Fill-9"></path>
                        <path d="M168,27.8468779 C166.857581,28.2934989 165.266108,28.6184211 163.837641,28.6184211 C160.69584,28.6184211 159.34927,27.4813895 159.34927,24.3534748 L159.34927,10.461387 L155.513514,10.461387 L155.513514,8.43032958 L159.34927,8.43032958 L159.34927,3.75913268 L161.716005,3.43421053 L161.716005,8.43032958 L167.796046,8.43032958 L167.551143,10.461387 L161.716005,10.461387 L161.716005,24.1098812 C161.716005,25.8565827 161.960908,26.5875596 164.001041,26.5875596 C165.102708,26.5875596 166.367776,26.3845323 167.551143,26.0188479 L168,27.8468779" id="Fill-10"></path>
                    </g>
                    <path d="M39.531744,0.564851471 C44.1929989,1.95464389 47.9863096,5.97824236 47.9999651,13.396192 C48.0314351,30.4737089 26.7868524,43.2504645 23.9999021,45 C21.3800751,43.2504645 -0.0314353257,30.4737089 3.46552118e-05,13.396192 C0.0301363761,-2.95565855 18.3914042,-2.81362912 23.9999021,5.67572351 C26.2010044,2.32320787 30.4018162,0.272478563 34.6815202,0.0252571967 C33.9315976,0.486614235 33.3423297,1.14432167 33.0639971,1.97718173 L26.8187994,20.6610185 C26.145795,22.674276 27.2818217,24.8485476 29.356083,25.5174349 C31.4301477,26.1861281 33.6573735,25.0960824 34.3303779,23.0826309 L38.5952951,10.323141 L37.6562741,10.0203182 L33.3913569,22.7800021 C32.8866527,24.2900423 31.21643,25.107528 29.6606357,24.6060566 C28.105038,24.1043911 27.2529196,22.4736875 27.7578204,20.9636473 L34.0028216,2.28000453 C34.5273523,0.710616864 36.5682468,-0.0138713235 38.2906333,0.260105199 C38.4339836,0.288078032 38.5767848,0.318349405 38.7189589,0.350939693 C38.7822086,0.367889907 38.8447673,0.386316436 38.9065326,0.406227847 C39.0734566,0.460157851 39.3709312,0.52533944 39.5233058,0.600414663 L39.531744,0.564851471 Z" id="Icon"></path>
                </g>
            </g>
        </g>
    </g>
</svg>